<svg width="23" height="25" viewBox="0 0 23 25" fill="none" xmlns="http://www.w3.org/2000/svg">
<path d="M14.1255 7.625C14.8177 7.625 15.4944 7.41973 16.07 7.03515C16.6455 6.65056 17.0941 6.10394 17.359 5.46439C17.6239 4.82485 17.6933 4.12112 17.5582 3.44219C17.4232 2.76325 17.0898 2.13961 16.6003 1.65013C16.1109 1.16064 15.4872 0.827301 14.8083 0.692253C14.1293 0.557205 13.4256 0.626516 12.7861 0.891423C12.1465 1.15633 11.5999 1.60493 11.2153 2.18051C10.8307 2.75608 10.6255 3.43277 10.6255 4.125C10.6255 5.05326 10.9942 5.9435 11.6506 6.59988C12.307 7.25625 13.1972 7.625 14.1255 7.625ZM14.1255 2.375C14.4716 2.375 14.8099 2.47764 15.0977 2.66993C15.3855 2.86222 15.6098 3.13553 15.7423 3.45531C15.8747 3.77508 15.9094 4.12694 15.8418 4.46641C15.7743 4.80588 15.6076 5.1177 15.3629 5.36244C15.1182 5.60718 14.8063 5.77385 14.4669 5.84138C14.1274 5.9089 13.7755 5.87424 13.4558 5.74179C13.136 5.60934 12.8627 5.38504 12.6704 5.09725C12.4781 4.80946 12.3755 4.47112 12.3755 4.125C12.3755 3.66087 12.5598 3.21575 12.888 2.88756C13.2162 2.55938 13.6613 2.375 14.1255 2.375ZM21.4875 13.3869C21.4208 13.4175 20.6683 13.7456 19.3361 13.7456C17.8212 13.7456 15.5572 13.3213 12.6981 11.5581C12.263 12.7935 11.698 13.9792 11.0126 15.0953C12.2436 15.4743 13.4015 16.0589 14.4372 16.8245C16.523 18.4148 17.6255 20.6789 17.6255 23.375C17.6255 23.6071 17.5333 23.8296 17.3692 23.9937C17.2051 24.1578 16.9825 24.25 16.7505 24.25C16.5184 24.25 16.2958 24.1578 16.1317 23.9937C15.9676 23.8296 15.8755 23.6071 15.8755 23.375C15.8755 18.8141 12.0812 17.1723 9.9539 16.6102C9.89374 16.6867 9.8314 16.7644 9.76905 16.8398C7.62093 19.443 4.92921 20.797 1.93452 20.797C1.59343 20.7986 1.25247 20.7829 0.912961 20.75C0.680896 20.7268 0.467555 20.6124 0.31987 20.4318C0.172185 20.2513 0.102254 20.0196 0.125461 19.7875C0.148667 19.5554 0.26311 19.3421 0.443614 19.1944C0.624118 19.0467 0.855896 18.9768 1.08796 19C3.92296 19.2822 6.38937 18.1808 8.41609 15.7188C9.78218 14.0628 10.713 12.0427 11.1778 10.5781C6.92093 8.10078 4.20187 10.2095 4.17234 10.2325C4.0832 10.3086 3.97969 10.366 3.86794 10.4014C3.75618 10.4367 3.63847 10.4492 3.52178 10.4382C3.4051 10.4272 3.29182 10.3928 3.18867 10.3372C3.08551 10.2815 2.9946 10.2057 2.92131 10.1142C2.84802 10.0228 2.79385 9.9175 2.76202 9.8047C2.73019 9.6919 2.72135 9.57385 2.73602 9.45757C2.75069 9.34128 2.78857 9.22913 2.84742 9.12777C2.90627 9.02641 2.98488 8.9379 3.07859 8.8675C3.24265 8.73625 7.14952 5.69563 12.8687 9.5861C17.842 12.9669 20.7361 11.8075 20.7634 11.7944C20.8683 11.7449 20.9819 11.7167 21.0977 11.7115C21.2135 11.7063 21.3292 11.7241 21.4381 11.764C21.5469 11.8039 21.6468 11.865 21.7318 11.9438C21.8168 12.0226 21.8854 12.1175 21.9334 12.223C21.9815 12.3285 22.0081 12.4425 22.0117 12.5584C22.0153 12.6742 21.9958 12.7897 21.9544 12.898C21.913 13.0062 21.8505 13.1052 21.7706 13.1892C21.6906 13.2731 21.5948 13.3403 21.4886 13.3869H21.4875Z" fill="white"/>
</svg>
